<?xml version="1.0" encoding="UTF-8" standalone="no"?>
<svg xmlns="http://www.w3.org/2000/svg" viewBox="0 0 161.834 36" width="161.834" height="36"><g fill="#ffffff" color="#ffffff" transform="translate(141.128, 6) scale(0.4705883)"><svg width="44.0" height="51.0" x="0.0" y="0.0" viewBox="0 0 44 51"><path fill="currentColor" fill-rule="evenodd" d="M21.998 0L0 12.571v25.143l4.19 2.395V15.002L21.999 4.827 39.81 15.002v20.28L21.998 45.459l-9.427-5.388V19.865l9.427-5.386 9.43 5.386v10.553l-9.43 5.387-1.045-.597V24.73l5.268-3.012-4.223-2.413-5.236 2.994v15.34l5.236 2.993 13.62-7.784V17.435l-13.62-7.781-13.617 7.78v25.068l13.617 7.784L44 37.714V12.571z"/></svg></g><path fill="#ffffff" fill-rule="nonzero" d="M1.08 16.75Q0.62 16.75 0.31 16.44Q0 16.13 0 15.67L0 15.67L0 1.10Q0 0.65 0.31 0.32Q0.62 0 1.08 0L1.08 0L6.74 0Q9.31 0 10.72 1.18Q12.12 2.35 12.12 4.34L12.12 4.34Q12.12 5.74 11.46 6.66Q10.80 7.58 9.77 8.04L9.77 8.04Q11.21 8.50 12.13 9.50Q13.06 10.51 13.06 12.05L13.06 12.05Q13.06 14.26 11.57 15.50Q10.08 16.75 6.89 16.75L6.89 16.75L1.08 16.75ZM2.18 7.25L6.17 7.25Q8.30 7.25 9.17 6.53Q10.03 5.81 10.03 4.51L10.03 4.51Q10.03 3.38 9.11 2.71Q8.18 2.04 6.58 2.04L6.58 2.04L2.18 2.04L2.18 7.25ZM2.18 14.71L6.67 14.71Q9 14.71 9.97 13.99Q10.94 13.27 10.94 11.95L10.94 11.95Q10.94 9.22 6.70 9.22L6.70 9.22L2.18 9.22L2.18 14.71ZM19.32 16.99Q18.26 16.99 17.36 16.56Q16.46 16.13 15.94 15.30Q15.41 14.47 15.41 13.39L15.41 13.39Q15.41 11.62 16.81 10.56Q18.22 9.50 20.93 9.50L20.93 9.50L23.83 9.50L23.83 9.31Q23.83 7.73 23.05 7.03Q22.27 6.34 20.62 6.34L20.62 6.34Q19.70 6.34 19.00 6.48Q18.29 6.62 17.42 6.91L17.42 6.91Q17.23 6.96 17.11 6.96L17.11 6.96Q16.75 6.96 16.49 6.70Q16.22 6.43 16.22 6.05L16.22 6.05Q16.22 5.40 16.85 5.14L16.85 5.14Q18.89 4.27 21 4.27L21 4.27Q22.66 4.27 23.80 4.94Q24.94 5.62 25.48 6.68Q26.02 7.75 26.02 9L26.02 9L26.02 15.79Q26.02 16.25 25.69 16.56Q25.37 16.87 24.91 16.87L24.91 16.87Q24.46 16.87 24.14 16.56Q23.83 16.25 23.83 15.79L23.83 15.79L23.83 15.17Q22.06 16.99 19.32 16.99L19.32 16.99ZM20.14 15.07Q21.19 15.07 22.18 14.56Q23.16 14.04 23.83 13.27L23.83 13.27L23.83 11.26L21.22 11.26Q17.59 11.26 17.59 13.15L17.59 13.15Q17.59 14.02 18.18 14.54Q18.77 15.07 20.14 15.07L20.14 15.07ZM32.21 22.39Q31.78 22.39 31.48 22.08Q31.18 21.77 31.18 21.34L31.18 21.34Q31.18 21.14 31.25 20.95L31.25 20.95L32.81 16.94L28.30 5.95Q28.20 5.71 28.20 5.50L28.20 5.50Q28.20 5.04 28.51 4.72Q28.82 4.39 29.28 4.39L29.28 4.39Q29.62 4.39 29.89 4.58Q30.17 4.78 30.29 5.06L30.29 5.06L33.98 14.23L37.75 5.11Q38.06 4.39 38.76 4.39L38.76 4.39Q39.22 4.39 39.53 4.72Q39.84 5.04 39.84 5.50L39.84 5.50Q39.84 5.71 39.77 5.90L39.77 5.90L33.22 21.65Q32.88 22.39 32.21 22.39L32.21 22.39ZM47.66 16.99Q44.74 16.99 43.09 15.32Q41.45 13.66 41.45 10.63L41.45 10.63Q41.45 8.93 42.07 7.49Q42.70 6.05 43.99 5.16Q45.29 4.27 47.18 4.27L47.18 4.27Q48.96 4.27 50.26 5.10Q51.55 5.93 52.22 7.31Q52.90 8.69 52.90 10.32L52.90 10.32Q52.90 10.78 52.60 11.09Q52.30 11.40 51.79 11.40L51.79 11.40L43.66 11.40Q43.85 13.08 44.90 14.02Q45.96 14.95 47.86 14.95L47.86 14.95Q48.86 14.95 49.62 14.76Q50.38 14.57 51.10 14.21L51.10 14.21Q51.29 14.11 51.53 14.11L51.53 14.11Q51.91 14.11 52.20 14.38Q52.49 14.64 52.49 15.05L52.49 15.05Q52.49 15.58 51.86 15.94L51.86 15.94Q50.93 16.46 50.02 16.73Q49.10 16.99 47.66 16.99L47.66 16.99ZM43.66 9.62L50.74 9.62Q50.66 8.45 50.12 7.66Q49.58 6.86 48.79 6.49Q48 6.12 47.18 6.12L47.18 6.12Q46.37 6.12 45.58 6.49Q44.78 6.86 44.26 7.66Q43.73 8.45 43.66 9.62L43.66 9.62ZM61.49 22.51Q60.10 22.51 58.68 22.15Q57.26 21.79 56.35 21.26L56.35 21.26Q55.92 21 55.92 20.42L55.92 20.42Q55.92 20.04 56.20 19.74Q56.47 19.44 56.88 19.44L56.88 19.44Q57.07 19.44 57.31 19.54L57.31 19.54Q59.14 20.45 61.27 20.45L61.27 20.45Q64.94 20.45 64.94 16.54L64.94 16.54L64.94 14.93Q63.24 16.75 60.84 16.75L60.84 16.75Q59.42 16.75 58.09 16.04Q56.76 15.34 55.90 13.93Q55.03 12.53 55.03 10.51L55.03 10.51Q55.03 8.50 55.90 7.09Q56.76 5.69 58.09 4.98Q59.42 4.27 60.84 4.27L60.84 4.27Q63.24 4.27 64.94 6.10L64.94 6.10L64.94 5.50Q64.94 5.04 65.26 4.72Q65.57 4.39 66.02 4.39L66.02 4.39Q66.48 4.39 66.80 4.72Q67.13 5.04 67.13 5.50L67.13 5.50L67.13 16.22Q67.13 19.25 65.66 20.88Q64.20 22.51 61.49 22.51L61.49 22.51ZM61.30 14.76Q62.42 14.76 63.29 14.28Q64.15 13.80 64.94 12.98L64.94 12.98L64.94 8.04Q64.15 7.22 63.29 6.74Q62.42 6.26 61.30 6.26L61.30 6.26Q59.50 6.26 58.36 7.36Q57.22 8.45 57.22 10.51L57.22 10.51Q57.22 12.58 58.36 13.67Q59.50 14.76 61.30 14.76L61.30 14.76ZM74.04 16.99Q72.98 16.99 72.08 16.56Q71.18 16.13 70.66 15.30Q70.13 14.47 70.13 13.39L70.13 13.39Q70.13 11.62 71.53 10.56Q72.94 9.50 75.65 9.50L75.65 9.50L78.55 9.50L78.55 9.31Q78.55 7.73 77.77 7.03Q76.99 6.34 75.34 6.34L75.34 6.34Q74.42 6.34 73.72 6.48Q73.01 6.62 72.14 6.91L72.14 6.91Q71.95 6.96 71.83 6.96L71.83 6.96Q71.47 6.96 71.21 6.70Q70.94 6.43 70.94 6.05L70.94 6.05Q70.94 5.40 71.57 5.14L71.57 5.14Q73.61 4.27 75.72 4.27L75.72 4.27Q77.38 4.27 78.52 4.94Q79.66 5.62 80.20 6.68Q80.74 7.75 80.74 9L80.74 9L80.74 15.79Q80.74 16.25 80.41 16.56Q80.09 16.87 79.63 16.87L79.63 16.87Q79.18 16.87 78.86 16.56Q78.55 16.25 78.55 15.79L78.55 15.79L78.55 15.17Q76.78 16.99 74.04 16.99L74.04 16.99ZM74.86 15.07Q75.91 15.07 76.90 14.56Q77.88 14.04 78.55 13.27L78.55 13.27L78.55 11.26L75.94 11.26Q72.31 11.26 72.31 13.15L72.31 13.15Q72.31 14.02 72.90 14.54Q73.49 15.07 74.86 15.07L74.86 15.07ZM85.49 16.87Q85.03 16.87 84.72 16.56Q84.41 16.25 84.41 15.79L84.41 15.79L84.41 5.50Q84.41 5.04 84.72 4.72Q85.03 4.39 85.49 4.39L85.49 4.39Q85.94 4.39 86.27 4.72Q86.59 5.04 86.59 5.50L86.59 5.50L86.59 6.48Q87.50 5.47 88.56 4.87Q89.62 4.27 91.06 4.27L91.06 4.27Q92.38 4.27 93.35 4.90Q94.32 5.52 94.84 6.60Q95.35 7.68 95.35 8.98L95.35 8.98L95.35 15.79Q95.35 16.25 95.03 16.56Q94.70 16.87 94.25 16.87L94.25 16.87Q93.79 16.87 93.48 16.56Q93.17 16.25 93.17 15.79L93.17 15.79L93.17 9.22Q93.17 6.29 90.53 6.29L90.53 6.29Q89.33 6.29 88.38 6.91Q87.43 7.54 86.59 8.59L86.59 8.59L86.59 15.79Q86.59 16.25 86.27 16.56Q85.94 16.87 85.49 16.87L85.49 16.87ZM102.98 16.99Q100.58 16.99 98.62 15.91L98.62 15.91Q98.21 15.62 98.21 15.12L98.21 15.12Q98.21 14.74 98.47 14.45Q98.74 14.16 99.14 14.16L99.14 14.16Q99.36 14.16 99.58 14.26L99.58 14.26Q100.34 14.59 101.11 14.78Q101.88 14.98 102.84 14.98L102.84 14.98Q105.50 14.98 105.50 13.27L105.50 13.27Q105.50 12.72 104.89 12.43Q104.28 12.14 102.89 11.78L102.89 11.78Q101.47 11.45 100.55 11.09Q99.62 10.73 98.96 10.00Q98.30 9.26 98.30 8.06L98.30 8.06Q98.30 6.38 99.52 5.33Q100.73 4.27 102.98 4.27L102.98 4.27Q104.83 4.27 106.46 4.87L106.46 4.87Q106.80 4.97 106.98 5.23Q107.16 5.50 107.16 5.78L107.16 5.78Q107.16 6.17 106.88 6.46Q106.61 6.74 106.20 6.74L106.20 6.74Q106.08 6.74 105.89 6.70L105.89 6.70Q104.50 6.26 103.15 6.26L103.15 6.26Q101.86 6.26 101.12 6.73Q100.39 7.20 100.39 7.94L100.39 7.94Q100.39 8.66 101.06 9Q101.74 9.34 103.15 9.65L103.15 9.65Q104.57 10.01 105.46 10.36Q106.34 10.70 106.98 11.45Q107.62 12.19 107.62 13.44L107.62 13.44Q107.62 14.98 106.40 15.98Q105.19 16.99 102.98 16.99L102.98 16.99ZM113.66 16.99Q112.61 16.99 111.71 16.56Q110.81 16.13 110.28 15.30Q109.75 14.47 109.75 13.39L109.75 13.39Q109.75 11.62 111.16 10.56Q112.56 9.50 115.27 9.50L115.27 9.50L118.18 9.50L118.18 9.31Q118.18 7.73 117.40 7.03Q116.62 6.34 114.96 6.34L114.96 6.34Q114.05 6.34 113.34 6.48Q112.63 6.62 111.77 6.91L111.77 6.91Q111.58 6.96 111.46 6.96L111.46 6.96Q111.10 6.96 110.83 6.70Q110.57 6.43 110.57 6.05L110.57 6.05Q110.57 5.40 111.19 5.14L111.19 5.14Q113.23 4.27 115.34 4.27L115.34 4.27Q117 4.27 118.14 4.94Q119.28 5.62 119.82 6.68Q120.36 7.75 120.36 9L120.36 9L120.36 15.79Q120.36 16.25 120.04 16.56Q119.71 16.87 119.26 16.87L119.26 16.87Q118.80 16.87 118.49 16.56Q118.18 16.25 118.18 15.79L118.18 15.79L118.18 15.17Q116.40 16.99 113.66 16.99L113.66 16.99ZM114.48 15.07Q115.54 15.07 116.52 14.56Q117.50 14.04 118.18 13.27L118.18 13.27L118.18 11.26L115.56 11.26Q111.94 11.26 111.94 13.15L111.94 13.15Q111.94 14.02 112.52 14.54Q113.11 15.07 114.48 15.07L114.48 15.07ZM124.61 16.75Q123.96 16.75 123.53 16.42Q123.10 16.08 123.10 15.48L123.10 15.48Q123.10 14.93 123.48 14.50L123.48 14.50L130.39 6.55L124.32 6.55Q123.89 6.55 123.60 6.26Q123.31 5.98 123.31 5.54L123.31 5.54Q123.31 5.11 123.60 4.81Q123.89 4.51 124.32 4.51L124.32 4.51L131.59 4.51Q132.22 4.51 132.60 4.90Q132.98 5.28 132.98 5.88L132.98 5.88Q132.98 6.43 132.65 6.84L132.65 6.84L125.93 14.71L132.10 14.71Q132.53 14.71 132.83 15.01Q133.13 15.31 133.13 15.74L133.13 15.74Q133.13 16.18 132.83 16.46Q132.53 16.75 132.10 16.75L132.10 16.75L124.61 16.75Z" transform="translate(0, 6.744)"/></svg>